<svg xmlns="http://www.w3.org/2000/svg" width="448.001" height="48.587" viewBox="0 0 448.001 48.587">
  <g id="logo" transform="translate(-211 -77.019)">
    <g id="Group_383" data-name="Group 383" transform="translate(211 77.019)">
      <g id="Group_382" data-name="Group 382" transform="translate(0)">
        <path id="Path_488" data-name="Path 488" d="M248.7,407.141c-.447-.24-.869-.488-1.3-.709l-27.206-14.307a1.943,1.943,0,0,1-1.215-1.824,1.44,1.44,0,0,1,1.437-1.279h30.11V382.31H213.747c-.381.011-.782.02-1.163.066a9.232,9.232,0,0,0-8.431,8.943c0,3.936,2.4,6.586,5.686,8.292l25.62,13.483c.886.421,2.123,1.061,2.069,2.134-.042.948-.684,1.474-1.766,1.573a17.682,17.682,0,0,1-1.871.084H203.781v7.439l-4.993-7.146H179c-7.623,0-11.975-6.476-11.975-13.834,0-7.178,4.3-14.166,11.906-14.166h25.122V382.31H178.9c-.943,0-1.871,0-2.829.066-10.9.73-19.783,7.7-21.885,16.81V382.31H143.2v.255l-13.008,26.283-13.62-26.538h-13.3V424.4h7.1v-28.23l14.47,28.23h4.514L143.2,396.414V424.4h10.985V407.519c2.173,9.39,11.566,16.526,22.948,16.847.488.037.968.03,1.466.03h64.66c.449,0,.895.007,1.343-.03a9.422,9.422,0,0,0,9.24-9.152,9.076,9.076,0,0,0-5.143-8.073" transform="translate(-42.537 -379.055)" fill="#803" fill-rule="evenodd"/>
        <path id="Path_489" data-name="Path 489" d="M77.733,379.179l-.838-.84-23.374,8.447-23.475-8.391-.829.838,8.369,23.45-8.415,23.428.82.816L53.5,418.67l23.453,8.217.8-.812-8.22-23.4Zm-2.8,44.869L53.5,408.818,32.058,424.092l15.278-21.455L32.058,381.275,53.5,396.468,74.857,381.19,59.671,402.672Z" transform="translate(-29.171 -378.339)" fill="#0e1471" fill-rule="evenodd"/>
      </g>
    </g>
    <path id="Path_522" data-name="Path 522" d="M1.7,22.115H.278v-3.5H1.455L7.111,5.538h.5l5.97,13.077h1.127v3.5H13.287V19.959H1.7Zm1.382-3.5h8.793L7.366,8.518ZM28.609,13.4H21.8V11.979H28.55a5.264,5.264,0,0,0-2.044-3.926A6.51,6.51,0,0,0,22.394,6.6a6.145,6.145,0,0,0-5.156,2.49l-1.147-.872a6.766,6.766,0,0,1,2.642-2.225,8.257,8.257,0,0,1,3.681-.814,7.661,7.661,0,0,1,5.544,2.157,7.123,7.123,0,0,1,2.23,5.333A7.6,7.6,0,0,1,28.075,18.1a7.463,7.463,0,0,1-5.681,2.225,7.575,7.575,0,0,1-6.3-2.872l1.147-.863A6.37,6.37,0,0,0,22.3,18.959,6.66,6.66,0,0,0,26.418,17.6,6.018,6.018,0,0,0,28.609,13.4Zm16.146,6.558H43.186L38.412,8.812,33.55,19.959H31.981l6.274-14.42h.314Zm1.657-14.42H48.1l3.451,5.627,3.48-5.627h1.667L52.4,12.528l4.578,7.431H55.293L51.548,13.91l-3.764,6.049H46.1l4.6-7.431Zm24.321,14.42h-1.5V8.91l-9.5,11.048H59.41V5.538h1.441V16.782L70.409,5.538h.324Zm14.852,0h-1.5V8.91l-9.5,11.048h-.323V5.538H75.7V16.782L85.261,5.538h.324ZM76.448,2.087h1.294a2.071,2.071,0,0,0,.892.765,3.192,3.192,0,0,0,1.333.255,3,3,0,0,0,1.265-.225,2.534,2.534,0,0,0,.912-.794H83.4a2.47,2.47,0,0,1-1.1,1.475,4.14,4.14,0,0,1-2.338.593A4.3,4.3,0,0,1,77.6,3.573,2.541,2.541,0,0,1,76.448,2.087ZM89.084,5.538h1.451v6.049h7.333V5.538h1.451v14.42H97.868V13H90.535v6.96H89.084Zm18.528,0H109.3l3.451,5.627,3.48-5.627H117.9l-4.294,6.99,4.578,7.431h-1.686l-3.745-6.049-3.764,6.049H107.3l4.6-7.431Zm19.861-.363a7.475,7.475,0,0,1,5.48,2.186,7.281,7.281,0,0,1,2.206,5.382,7.319,7.319,0,0,1-2.2,5.372,7.3,7.3,0,0,1-5.367,2.206,7.374,7.374,0,0,1-5.411-2.2,7.222,7.222,0,0,1-2.206-5.313,7.687,7.687,0,0,1,1-3.853,7.421,7.421,0,0,1,6.495-3.784Zm.069,1.412a5.928,5.928,0,0,0-3.029.833,5.991,5.991,0,0,0-2.235,2.245,6.246,6.246,0,0,0-.8,3.147,6.058,6.058,0,0,0,6.068,6.107,6.155,6.155,0,0,0,3.1-.814,5.823,5.823,0,0,0,2.225-2.225,6.257,6.257,0,0,0,.8-3.137,6.1,6.1,0,0,0-.8-3.1,5.969,5.969,0,0,0-2.25-2.22A6.085,6.085,0,0,0,127.541,6.587Zm11.921,13.371h-1.431V5.538h7.225V6.96h-5.794Zm16.214-6.7v6.7h-1.461v-6.7l-.441-.4-5.9,7.1h-1.912l6.882-7.99L146.51,5.538h1.941l5.764,6.1v-6.1h1.461v6.1l5.774-6.1H163.4l-6.333,6.431,6.872,7.99h-1.912l-5.911-7.1Zm22.1,6.7H176.2L171.43,8.812l-4.862,11.146H165l6.274-14.42h.314Zm13.754,0h-1.5V8.91l-9.5,11.048H180.2V5.538h1.441V16.782L191.2,5.538h.323Zm14.852,0h-1.5V8.91l-9.5,11.048h-.323V5.538H196.5V16.782l9.558-11.244h.324ZM197.241,2.087h1.294a2.071,2.071,0,0,0,.892.765,3.192,3.192,0,0,0,1.333.255,3,3,0,0,0,1.265-.225,2.534,2.534,0,0,0,.912-.794h1.255a2.47,2.47,0,0,1-1.1,1.475,4.14,4.14,0,0,1-2.338.593,4.3,4.3,0,0,1-2.353-.583A2.541,2.541,0,0,1,197.241,2.087Zm14.067,17.871h-1.431V5.538H217.1V6.96h-5.794ZM1.082,45.319,3.131,30.9h.235L9.229,42.731l5.8-11.832h.235l2.068,14.42H15.914L14.5,35.006,9.4,45.319H9.042L3.876,34.927l-1.4,10.391ZM27.06,30.536a7.475,7.475,0,0,1,5.48,2.186,7.663,7.663,0,0,1,0,10.754,7.3,7.3,0,0,1-5.367,2.206,7.374,7.374,0,0,1-5.411-2.2,7.221,7.221,0,0,1-2.206-5.313,7.687,7.687,0,0,1,1-3.853,7.421,7.421,0,0,1,6.495-3.784Zm.069,1.412a5.928,5.928,0,0,0-3.029.833,5.991,5.991,0,0,0-2.235,2.245,6.246,6.246,0,0,0-.8,3.147,6.058,6.058,0,0,0,6.068,6.107,6.155,6.155,0,0,0,3.1-.814,5.823,5.823,0,0,0,2.225-2.225,6.257,6.257,0,0,0,.8-3.137,6.1,6.1,0,0,0-.8-3.1,5.968,5.968,0,0,0-2.25-2.22A6.085,6.085,0,0,0,27.129,31.947ZM37.618,30.9h1.451v6.049H46.4V30.9h1.451v14.42H46.4v-6.96H39.069v6.96H37.618Zm15.146,14.42H51.333V30.9h7.225V32.32H52.764ZM67.5,30.536a7.475,7.475,0,0,1,5.48,2.186,7.663,7.663,0,0,1,0,10.754,7.3,7.3,0,0,1-5.367,2.206,7.374,7.374,0,0,1-5.411-2.2A7.221,7.221,0,0,1,60,38.172a7.687,7.687,0,0,1,1-3.853A7.421,7.421,0,0,1,67.5,30.536Zm.069,1.412a5.928,5.928,0,0,0-3.029.833A5.991,5.991,0,0,0,62.3,35.025a6.246,6.246,0,0,0-.8,3.147,6.058,6.058,0,0,0,6.068,6.107,6.155,6.155,0,0,0,3.1-.814,5.823,5.823,0,0,0,2.225-2.225,6.257,6.257,0,0,0,.8-3.137,6.1,6.1,0,0,0-.8-3.1,5.968,5.968,0,0,0-2.25-2.22A6.085,6.085,0,0,0,67.566,31.947ZM89.751,45.319H88.182L83.408,34.173,78.546,45.319H76.977L83.251,30.9h.314Zm2.382,2.157H90.711v-3.5h1.176L97.544,30.9h.5l5.97,13.077h1.127v3.5H103.72V45.319H92.133Zm1.382-3.5h8.793L97.8,33.878Z" transform="translate(441.898 77.118)" fill="#bebebe"/>
    <path id="Path_527" data-name="Path 527" d="M0,0H13.414" transform="translate(562.664 89.532)" fill="none" stroke="#bebebe" stroke-width="1.5"/>
  </g>
</svg>
